# AST/ASF file generated using VICON BodyLanguage
# -----------------------------------------------
:version 1.10
:name VICON
:units
  mass 1.0
  length 0.45
  angle deg
:documentation
   .ast/.asf automatically generated from VICON data using
   VICON BodyBuilder and BodyLanguage model FoxedUp or BRILLIANT.MOD
:root
   order TX TY TZ RX RY RZ
   axis XYZ
   position 0 0 0  
   orientation 0 0 0 
:bonedata
  begin
     id 1 
     name lhipjoint
     direction 0.653368 -0.678499 0.335782 
     length 2.51848 
     axis 0 0 0  XYZ
  end
  begin
     id 2 
     name lfemur
     direction 0.34202 -0.939693 0  
     length 6.57749  
     axis 0 0 20  XYZ
    dof rx ry rz
    limits (-160.0 20.0)
           (-70.0 70.0)
           (-60.0 70.0)
  end
  begin
     id 3 
     name ltibia
     direction 0.34202 -0.939693 0   
     length 7.94618   
     axis 0 0 20   XYZ
    dof rx
    limits (-10.0 170.0)
  end
  begin
     id 4 
     name lfoot
     direction 0.0811271 -0.222895 0.971461   
     length 2.31339   
     axis -90 7.62852e-016 20   XYZ
    dof rx rz
    limits (-45.0 90.0)
           (-70.0 20.0)
  end
  begin
     id 5 
     name ltoes
     direction 1.53568e-011 -4.21885e-011 1   
     length 1.15935   
     axis -90 7.62852e-016 20   XYZ
    dof rx
    limits (-90.0 20.0)
  end
  begin
     id 6 
     name rhipjoint
     direction -0.640058 -0.688614 0.340788   
     length 2.48149  
     axis 0 0 0  XYZ 
  end
  begin
     id 7 
     name rfemur
     direction -0.34202 -0.939693 0   
     length 6.57875   
     axis 0 0 -20   XYZ
    dof rx ry rz
    limits (-160.0 20.0)
           (-70.0 70.0)
           (-70.0 60.0)
  end
  begin
     id 8 
     name rtibia
     direction -0.34202 -0.939693 0   
     length 7.977   
     axis 0 0 -20   XYZ
    dof rx
    limits (-10.0 170.0)
 end
 begin
     id 9 
     name rfoot
     direction -0.0979793 -0.269196 0.958089   
     length 2.19857  
     axis -90 -7.62852e-016 -20   XYZ
    dof rx rz
    limits (-45.0 90.0)
           (-20.0 70.0)
  end
  begin
     id 10 
     name rtoes
     direction -1.53556e-011 -4.21868e-011 1   
     length 1.09838   
     axis -90 -7.62852e-016 -20   XYZ
    dof rx
    limits (-90.0 20.0)
  end
  begin
     id 11 
     name lowerback
     direction 0.0149039 0.998517 -0.0523597   
     length 2.10809   
     axis 0 0 0   XYZ
    dof rx ry rz
    limits (-20.0 45.0)
           (-30.0 30.0)
           (-30.0 30.0)
  end
  begin
     id 12 
     name upperback
     direction -0.00882659 0.999418 -0.0329624   
     length 2.1102   
     axis 0 0 0   XYZ
    dof rx ry rz
    limits (-20.0 45.0)
           (-30.0 30.0)
           (-30.0 30.0)
  end
  begin
     id 13 
     name thorax
     direction -0.0165585 0.999826 -0.0085833   
     length 2.11039   
     axis 0 0 0   XYZ
    dof rx ry rz
    limits (-20.0 45.0)
           (-30.0 30.0)
           (-30.0 30.0)
  end
  begin
     id 14 
     name lowerneck
     direction -0.0130877 0.999911 0.00260353   
     length 1.73253   
     axis 0 0 0   XYZ
    dof rx ry rz
    limits (-20.0 45.0)
           (-30.0 30.0)
           (-30.0 30.0)
  end
  begin
     id 15 
     name upperneck
     direction -0.0348454 0.928205 -0.370435   
     length 1.66692   
     axis 0 0 0   XYZ
    dof rx ry rz
    limits (-20.0 45.0)
           (-30.0 30.0)
           (-30.0 30.0)
  end
  begin
     id 16
     name head
     direction -0.00807754 0.992494 -0.122026  
     length 1.72765  
     axis 0 0 0   XYZ
    dof rx ry rz
    limits (-20.0 45.0)
           (-30.0 30.0)
           (-30.0 30.0)
  end
  begin
     id 17 
     name lclavicle
     direction 0.987582 0.144023 0.0627671  
     length 3.49235  
     axis 0 0 0   XYZ
    dof ry rz
    limits (-20.0 10.0)
           (0.0 20.0)
  end
  begin
     id 18 
     name lhumerus
     direction 1 -4.48958e-011 -1.45183e-018   
     length 5.41917   
     axis 180 -30 -90   XYZ
    dof rx ry rz
    limits (-60.0 90.0)
           (-90.0 90.0)
           (-90.0 90.0)
  end
  begin
     id 19
     name lradius
     direction 1 -4.48999e-011 5.75106e-027   
     length 2.44373   
     axis 180 -30 -90   XYZ
    dof rx
    limits (-10.0 170.0)
  end
  begin
     id 20
     name lwrist
     direction 1 -4.48987e-011 1.53461e-026   
     length 1.22186   
     axis -1.09697e-014 90 90   XYZ
    dof ry
    limits (-180.0 0.0)
 end
  begin
     id 21 
     name lhand
     direction 1 -4.48881e-011 3.06923e-026   
     length 0.727502   
     axis -1.95843e-014 90 90   XYZ
    dof rx rz
    limits (-90.0 90.0)
           (-45.0 45.0)
  end
  begin
     id 22 
     name lfingers
     direction 1 -4.48907e-011 6.13845e-026   
     length 0.586531   
     axis -3.91686e-014 90 90   XYZ
    dof rx
    limits (0.0 90.0)
  end
  begin
     id 23
     name lthumb
     direction 0.707107 -6.3487e-011 0.707107   
     length 0.842145   
     axis -90 45 2.85299e-015   XYZ
    dof rx rz
    limits (-45.0 45.0)
           (-45.0 45.0)
  end
  begin
     id 24 
     name rclavicle
     direction -0.980998 0.169556 0.0943023   
     length 3.29272  
     axis 0 0 0   XYZ 
    dof ry rz
    limits (-10.0 20.0)
           (-20.0 0.0)
  end
  begin
     id 25 
     name rhumerus
     direction -1 -1.83355e-005 2.45537e-005  
     length 5.58976   
     axis 180 30 90   XYZ
    dof rx ry rz
    limits (-90.0 60.0)
           (-90.0 90.0)
           (-90.0 90.0)
  end
  begin
     id 26 
     name rradius
     direction -1 -4.48967e-011 5.97228e-027   
     length 2.4806   
     axis 180 30 90   XYZ
    dof rx
    limits (-10.0 170.0)
  end
  begin
     id 27 
     name rwrist
     direction -1 -4.48963e-011 1.53461e-026   
     length 1.2403   
     axis -1.09697e-014 -90 -90   XYZ
    dof ry
    limits (-180.0 0.0)
  end
  begin
     id 28
     name rhand
     direction -1 -4.48881e-011 3.06923e-026   
     length 0.816009   
     axis -1.95843e-014 -90 -90   XYZ
    dof rx rz
    limits (-90.0 90.0)
           (-45.0 45.0)
  end
  begin
     id 29
     name rfingers
     direction -1 -4.49018e-011 6.13845e-026   
     length 0.657887   
     axis -3.91686e-014 -90 -90   XYZ
    dof rx
    limits (0.0 90.0)
  end
  begin
     id 30
     name rthumb
     direction -0.707107 -6.34872e-011 0.707107   
     length 0.944599   
     axis -90 -45 -2.85299e-015   XYZ
    dof rx rz
    limits (-45.0 45.0)
           (-45.0 45.0)
  end
:hierarchy
  begin
    root lhipjoint rhipjoint lowerback
    lhipjoint lfemur
    lfemur ltibia
    ltibia lfoot
    lfoot ltoes
    rhipjoint rfemur
    rfemur rtibia
    rtibia rfoot
    rfoot rtoes
    lowerback upperback
    upperback thorax
    thorax lowerneck lclavicle rclavicle
    lowerneck upperneck
    upperneck head
    lclavicle lhumerus
    lhumerus lradius
    lradius lwrist
    lwrist lhand lthumb
    lhand lfingers
    rclavicle rhumerus
    rhumerus rradius
    rradius rwrist
    rwrist rhand rthumb
    rhand rfingers
  end

#!OML:ASF F:\VICON\USERDATA\INSTALL\rory3\rory3.ASF
:FULLY-SPECIFIED
:DEGREES
33
root 0.918309 16.6684 32.9713 -156.226 2.37795 -181.351
lowerback -2.1301 -3.59786 -5.54226
upperback -7.23134 -4.33809 0.82377
thorax -5.8574 -1.58486 4.03759
lowerneck -20.6803 2.06988 2.13444
upperneck 30.8661 4.42379 -1.85195
head 14.0999 2.41283 -0.185792
rclavicle 2.98177e-016 -8.74653e-015
rhumerus -29.0606 10.9538 -71.9514
rradius 30.1427
rwrist -16.3048
rhand 1.90915 8.27325
rfingers 7.12502
rthumb 27.4177 -19.7517
lclavicle 2.98177e-016 -8.74653e-015
lhumerus -4.269 -28.1601 78.6007
lradius 18.4658
lwrist -45.9788
lhand 12.7439 20.4266
lfingers 7.12502
lthumb 37.7239 46.3004
rfemur -73.6518 0.293636 18.4157
rtibia 47.6749
rfoot 5.10301 -21.0194
rtoes 11.4626
lfemur -29.8238 7.0028 -31.7734
ltibia 34.2418
lfoot -39.9611 20.4915
ltoes -1.17194
34
root 0.93301 16.6456 32.8884 -156.372 2.12394 -181.552
lowerback -2.19315 -3.74842 -5.66161
upperback -7.24865 -4.53261 0.825452
thorax -5.81068 -1.67366 4.10389
lowerneck -20.6029 2.10717 2.04835
upperneck 30.7053 4.46011 -1.78559
head 14.0094 2.42311 -0.142134
rclavicle -4.88016e-014 -1.23246e-014
rhumerus -28.5287 9.51624 -70.3876
rradius 28.3184
rwrist -13.4365
rhand 1.64394 8.28082
rfingers 7.12502
rthumb 27.164 -19.7841
lclavicle -4.88016e-014 -1.23246e-014
lhumerus -3.24749 -26.6745 77.3682
lradius 18.0751
lwrist -46.9891
lhand 12.2336 21.0685
lfingers 7.12502
lthumb 37.2416 47.0701
rfemur -73.6947 -0.262864 19.1827
rtibia 48.1461
rfoot 7.26936 -20.0458
rtoes 9.16186
lfemur -29.3361 6.77264 -31.7665
ltibia 34.3219
lfoot -40.1916 20.1992
ltoes -1.42287
35
root 0.944925 16.6193 32.8033 -156.505 1.72815 -181.778
lowerback -2.55063 -3.84771 -5.69577
upperback -7.05063 -4.6515 0.725804
thorax -5.38763 -1.75896 3.98837
lowerneck -20.7234 2.14676 2.11535
upperneck 30.4226 4.40118 -1.73028
head 13.9111 2.39483 -0.147042
rclavicle 3.58309e-014 -4.77083e-015
rhumerus -27.9291 7.55253 -68.6878
rradius 26.7266
rwrist -10.7383
rhand 1.34969 8.11872
rfingers 7.12502
rthumb 26.8825 -19.9898
lclavicle 3.58309e-014 -4.77083e-015
lhumerus -1.71861 -25.5304 75.9639
lradius 17.7509
lwrist -47.7132
lhand 13.5677 21.5407
lfingers 7.12502
lthumb 38.5018 47.2016
rfemur -73.6553 -0.881075 19.8814
rtibia 48.6251
rfoot 8.95469 -19.033
rtoes 8.14539
lfemur -28.9276 6.55672 -31.769
ltibia 34.5231
lfoot -40.2874 20.1594
ltoes -2.16111
36
root 0.957199 16.5842 32.7117 -156.625 1.49529 -182.032
lowerback -2.45635 -3.91998 -5.83169
upperback -7.20449 -4.74212 0.666041
thorax -5.5909 -1.7778 4.01308
lowerneck -20.9241 2.15383 2.22705
upperneck 30.5511 4.38146 -1.752
head 14.0134 2.39508 -0.173392
rclavicle -5.52124e-014 -1.11319e-014
rhumerus -27.9522 5.74889 -66.9054
rradius 25.484
rwrist -8.05451
rhand 1.11404 7.19836
rfingers 7.12502
rthumb 26.657 -20.9447
lclavicle -5.52124e-014 -1.11319e-014
lhumerus -0.891849 -22.9461 75.1138
lradius 17.3256
lwrist -49.874
lhand 14.5477 21.519
lfingers 7.12502
lthumb 39.4258 46.9157
rfemur -73.5609 -1.25947 20.3239
rtibia 49.1894
rfoot 9.92657 -18.2272
rtoes 8.58928
lfemur -28.4976 6.21933 -31.8345
ltibia 34.7447
lfoot -40.7147 20.2113
ltoes -2.49883
37
root 0.969881 16.5446 32.6133 -156.783 1.28038 -182.056
lowerback -2.62018 -4.0016 -5.69165
upperback -7.15797 -4.83838 0.676418
thorax -5.44626 -1.8402 3.93351
lowerneck -21.2909 2.14227 2.12955
upperneck 30.662 4.38536 -1.76089
head 14.1393 2.37402 -0.153723
rclavicle -4.24902e-014 -9.14409e-015
rhumerus -27.6532 3.81627 -65.0809
rradius 24.3333
rwrist -5.15977
rhand 1.00611 6.63855
rfingers 7.12502
rthumb 26.5537 -21.5202
lclavicle -4.24902e-014 -9.14409e-015
lhumerus 0.115017 -20.3094 74.0955
lradius 17.0283
lwrist -51.8242
lhand 13.7591 21.774
lfingers 7.12502
lthumb 38.6823 47.3843
rfemur -73.3707 -1.51814 20.9512
rtibia 49.7792
rfoot 10.683 -17.5503
rtoes 8.37217
lfemur -28.0391 5.93904 -31.6635
ltibia 35.0589
lfoot -41.2786 20.1295
ltoes -2.06493
38
root 0.984068 16.5066 32.5101 -156.994 0.992592 -182.191
lowerback -2.85819 -4.09578 -5.65499
upperback -7.02014 -4.95459 0.625868
thorax -5.15858 -1.91893 3.83841
lowerneck -21.5286 2.10122 2.04837
upperneck 30.6157 4.30911 -1.7357
head 14.1659 2.32305 -0.142637
rclavicle 1.65488e-014 -3.97569e-016
rhumerus -27.114 1.69598 -63.2218
rradius 22.9398
rwrist -2.62838
rhand 1.16247 6.5522
rfingers 7.12502
rthumb 26.7033 -21.5838
lclavicle 1.65488e-014 -3.97569e-016
lhumerus 1.40021 -17.9895 73.0052
lradius 16.7347
lwrist -53.4109
lhand 13.0532 22.3652
lfingers 7.12502
lthumb 38.0161 48.16
rfemur -73.1331 -1.74476 21.2706
rtibia 50.4965
rfoot 10.6971 -17.0599
rtoes 10.0767
lfemur -27.5499 5.72666 -31.5802
ltibia 35.4308
lfoot -41.6663 20.1374
ltoes -2.44937
39
root 1.00147 16.4666 32.4061 -157.149 0.462243 -182.215
lowerback -2.74236 -4.19758 -5.57877
upperback -7.1818 -5.08195 0.678642
thorax -5.38404 -1.96453 3.8652
lowerneck -21.679 2.08391 2.11383
upperneck 30.7276 4.26169 -1.72676
head 14.248 2.31219 -0.154916
rclavicle -1.03368e-013 -3.29983e-014
rhumerus -27.0903 -0.401363 -61.1172
rradius 21.6476
rwrist -0.354473
rhand 1.37154 6.28547
rfingers 7.12502
rthumb 26.9034 -21.8198
lclavicle -1.03368e-013 -3.29983e-014
lhumerus 2.35959 -16.7414 72.1158
lradius 16.4743
lwrist -54.4964
lhand 12.7997 22.643
lfingers 7.12502
lthumb 37.7767 48.5026
rfemur -72.8555 -1.84561 21.5034
rtibia 51.2978
rfoot 10.1529 -16.6669
rtoes 14.4135
lfemur -27.1164 5.44377 -31.2921
ltibia 35.8055
lfoot -41.9298 19.9929
ltoes -2.81688
40
root 1.02084 16.413 32.2977 -157.241 0.115268 -182.298
lowerback -2.33196 -3.45959 -5.74892
upperback -7.74934 -5.41608 0.728236
thorax -6.23162 -2.63525 4.14107
lowerneck -21.275 2.05417 2.21096
upperneck 30.9559 4.33328 -1.89032
head 14.27 2.36231 -0.22219
rclavicle 2.27111e-014 5.96354e-015
rhumerus -27.5817 -2.31653 -58.7078
rradius 20.4372
rwrist 2.11075
rhand 1.48947 5.73503
rfingers 7.12502
rthumb 27.0162 -22.3528
lclavicle 2.27111e-014 5.96354e-015
lhumerus 2.50655 -14.6894 71.64
lradius 16.3066
lwrist -56.172
lhand 12.8877 22.5532
lfingers 7.12502
lthumb 37.8598 48.3904
rfemur -72.6694 -1.66347 21.6149
rtibia 52.2367
rfoot 9.98185 -15.7453
rtoes 16.3716
lfemur -26.7287 5.15703 -31.1323
ltibia 36.175
lfoot -42.48 19.8328
ltoes -3.12253
41
root 1.03667 16.3663 32.1877 -157.396 -0.0854158 -182.573
lowerback -2.02812 -3.49425 -5.99234
upperback -8.24795 -5.58282 0.768731
thorax -6.91183 -2.69621 4.38012
lowerneck -20.6138 1.94905 2.02709
upperneck 31.07 4.34356 -1.88201
head 14.1712 2.38313 -0.188145
rclavicle 3.03147e-014 8.74653e-015
rhumerus -27.9341 -4.68279 -56.0534
rradius 19.2157
rwrist 4.98432
rhand 1.51713 5.51479
rfingers 7.12502
rthumb 27.0427 -22.569
lclavicle 3.03147e-014 8.74653e-015
lhumerus 2.64832 -11.5845 71.2897
lradius 16.3615
lwrist -58.2802
lhand 13.8455 22.7779
lfingers 7.12502
lthumb 38.7639 48.3652
rfemur -72.4871 -2.04746 22.0085
rtibia 53.2106
rfoot 9.50325 -14.1119
rtoes 16.5233
lfemur -26.2086 4.73844 -31.2158
ltibia 36.4588
lfoot -43.0668 19.8995
ltoes -3.88166
42
root 1.0529 16.3296 32.0742 -157.534 -0.594176 -182.614
lowerback -2.35443 -3.6448 -5.89133
upperback -8.28342 -5.76985 0.846257
thorax -6.74155 -2.80541 4.38177
lowerneck -20.5484 1.88407 1.79037
upperneck 31.0839 4.29174 -1.73408
head 14.1514 2.35778 -0.0976701
rclavicle -9.16894e-015 -2.14687e-014
rhumerus -27.6791 -7.96972 -53.2221
rradius 17.7874
rwrist 8.2266
rhand 1.62584 5.23728
rfingers 7.12502
rthumb 27.1467 -22.8303
lclavicle -9.16894e-015 -2.14687e-014
lhumerus 3.62914 -9.80068 70.4748
lradius 16.389
lwrist -59.1911
lhand 14.4349 23.2894
lfingers 7.12502
lthumb 39.3194 48.7172
rfemur -72.2091 -2.23327 22.3231
rtibia 54.1542
rfoot 7.76634 -13.4342
rtoes 17.1953
lfemur -25.6932 4.35415 -30.9502
ltibia 36.6816
lfoot -43.2731 20.0379
ltoes -4.8263
43
root 1.07019 16.2962 31.9539 -157.63 -1.13922 -182.735
lowerback -2.71442 -3.80284 -5.84302
upperback -8.26898 -5.95948 0.8838
thorax -6.49784 -2.91515 4.36202
lowerneck -21.1293 1.91057 1.74973
upperneck 31.352 4.31859 -1.67166
head 14.3953 2.362 -0.0489902
rclavicle -2.65253e-014 -6.75868e-015
rhumerus -27.4579 -11.2698 -50.4003
rradius 16.5676
rwrist 11.3124
rhand 1.70801 4.58635
rfingers 7.12502
rthumb 27.2253 -23.4689
lclavicle -2.65253e-014 -6.75868e-015
lhumerus 4.86404 -8.82431 69.4855
lradius 16.3016
lwrist -59.5379
lhand 14.7039 23.8174
lfingers 7.12502
lthumb 39.5729 49.1709
rfemur -71.9387 -2.42795 22.4253
rtibia 55.0331
rfoot 5.99273 -13.1748
rtoes 17.7248
lfemur -25.1021 4.03386 -30.7615
ltibia 36.7633
lfoot -43.4085 20.1625
ltoes -5.6992
